<svg width="126" height="76" viewBox="0 0 126 76" fill="none" xmlns="http://www.w3.org/2000/svg">
<path d="M85.2232 24.1249L85.2192 24.1255C85.2163 24.1256 85.2116 24.125 85.2055 24.1251C85.193 24.1254 85.1735 24.1265 85.1484 24.1272C85.0981 24.1287 85.0227 24.1307 84.9239 24.1342C84.7262 24.1411 84.4338 24.1521 84.0576 24.1699C83.3049 24.2056 82.2163 24.2675 80.8752 24.3708C78.1922 24.5774 74.5021 24.9512 70.4731 25.6189C66.4426 26.2868 62.0822 27.2477 58.0552 28.6257C54.0229 30.0055 50.356 31.7927 47.6875 34.0985C42.2495 38.7974 37.5019 44.0439 33.0963 51.1589C30.8984 54.7084 29.7077 60.2942 29.8201 62.9946C29.8749 64.3114 29.9327 65.3795 29.9766 66.128L32.117 63.6492C32.2974 63.4403 32.6134 63.4165 32.8225 63.5967C33.0315 63.7772 33.0546 64.0936 32.8741 64.3026L29.9332 67.7084C29.7527 67.9174 29.4371 67.9401 29.2281 67.7596L25.8215 64.8191C25.6128 64.6386 25.5899 64.323 25.7703 64.1141C25.9507 63.9051 26.2663 63.8824 26.4753 64.0629L28.9794 66.2246C28.9349 65.4694 28.8773 64.3814 28.8213 63.0358C28.7084 60.3233 30.0374 54.1991 32.2462 50.6319C36.654 43.5135 41.4702 38.1498 47.0342 33.342C49.8393 30.9183 53.6403 29.0793 57.731 27.6794C61.8273 26.2778 66.2463 25.3053 70.31 24.6319C74.375 23.9582 78.0951 23.582 80.7986 23.3738C82.1506 23.2697 83.2492 23.208 84.0105 23.172C84.3912 23.1539 84.6881 23.1416 84.8898 23.1345C84.9902 23.131 85.0671 23.1287 85.1192 23.1271C85.1453 23.1264 85.1657 23.1266 85.1791 23.1263C85.1856 23.1261 85.1905 23.1259 85.1939 23.1258L85.1979 23.1252C85.1979 23.1252 85.1997 23.1253 85.2115 23.6252C85.2226 24.0952 85.2232 24.1249 85.2232 24.1249Z" fill="#2C3F91" fill-opacity="0.8"/>
<path d="M119.933 21.8438C121.776 22.7396 122.698 23.6823 122.698 24.6719C122.698 24.974 122.631 25.2708 122.495 25.5625C122.36 25.8542 122.198 26.125 122.011 26.375C121.823 26.6146 121.625 26.8281 121.417 27.0156C121.219 27.1927 121.052 27.3177 120.917 27.3906C120.792 27.4635 120.625 27.5312 120.417 27.5938C120.219 27.6667 120.011 27.7292 119.792 27.7812C119.584 27.8333 119.381 27.875 119.183 27.9062C118.995 27.9375 118.839 27.9531 118.714 27.9531C118.443 27.9531 118.151 27.9062 117.839 27.8125C117.537 27.7292 117.245 27.5833 116.964 27.375C116.683 27.1771 116.427 26.9115 116.198 26.5781C115.979 26.2448 115.808 25.8333 115.683 25.3438C115.683 25.1146 115.828 24.9688 116.12 24.9062C116.214 24.9062 116.302 24.9375 116.386 25C116.469 25.0521 116.521 25.1302 116.542 25.2344C116.657 25.6719 116.818 26.0156 117.026 26.2656C117.245 26.5052 117.464 26.6875 117.683 26.8125C117.912 26.9375 118.12 27.0156 118.308 27.0469C118.506 27.0677 118.641 27.0781 118.714 27.0781C118.808 27.0781 118.938 27.0677 119.104 27.0469C119.271 27.0156 119.438 26.9792 119.604 26.9375C119.782 26.8854 119.948 26.8333 120.104 26.7812C120.271 26.7292 120.396 26.6771 120.479 26.625C120.573 26.5729 120.698 26.4792 120.854 26.3438C121.011 26.1979 121.157 26.0365 121.292 25.8594C121.438 25.6719 121.563 25.474 121.667 25.2656C121.771 25.0573 121.823 24.8594 121.823 24.6719C121.823 24.5677 121.792 24.4479 121.729 24.3125C121.667 24.1667 121.552 24.0104 121.386 23.8438C121.229 23.6667 121 23.4792 120.698 23.2812C120.407 23.0833 120.026 22.8698 119.558 22.6406C119.256 22.4948 118.938 22.3438 118.604 22.1875C118.282 22.0312 117.979 21.8906 117.698 21.7656C117.417 21.6302 117.183 21.5156 116.995 21.4219L116.714 21.2969L116.464 21.1875V20.9062C116.464 20.4271 116.584 20.0104 116.823 19.6562C117.063 19.2917 117.354 18.9896 117.698 18.75C118.042 18.5 118.401 18.3125 118.776 18.1875C119.162 18.0625 119.5 18 119.792 18C120.094 18 120.349 18.0365 120.558 18.1094C120.766 18.1823 120.938 18.2656 121.073 18.3594C121.209 18.4427 121.308 18.526 121.37 18.6094C121.443 18.6823 121.485 18.7292 121.495 18.75C121.547 18.8229 121.573 18.901 121.573 18.9844C121.573 19.1406 121.506 19.2604 121.37 19.3438C121.287 19.3958 121.209 19.4219 121.136 19.4219C120.979 19.4219 120.86 19.3542 120.776 19.2188C120.766 19.2188 120.74 19.2031 120.698 19.1719C120.667 19.1302 120.61 19.0885 120.526 19.0469C120.453 19.0052 120.354 18.9688 120.229 18.9375C120.115 18.8958 119.969 18.875 119.792 18.875C119.615 18.875 119.401 18.9115 119.151 18.9844C118.901 19.0573 118.651 19.1719 118.401 19.3281C118.151 19.474 117.927 19.6562 117.729 19.875C117.532 20.0938 117.407 20.349 117.354 20.6406C117.49 20.7031 117.657 20.7812 117.854 20.875C118.052 20.9583 118.266 21.0573 118.495 21.1719C118.735 21.276 118.979 21.3906 119.229 21.5156C119.479 21.6302 119.714 21.7396 119.933 21.8438Z" fill="#2C3F91" fill-opacity="0.8"/>
<path d="M113.636 23.6094C113.688 23.474 113.719 23.3385 113.729 23.2031C113.75 23.0677 113.761 22.9323 113.761 22.7969C113.761 22.4635 113.703 22.1406 113.589 21.8281C113.485 21.5156 113.344 21.2292 113.167 20.9688C112.99 20.6979 112.792 20.4583 112.573 20.25C112.354 20.0312 112.136 19.8542 111.917 19.7188C111.657 19.5729 111.344 19.5 110.979 19.5C110.657 19.5 110.318 19.5625 109.964 19.6875C109.61 19.8125 109.292 20.0104 109.011 20.2812C108.907 20.3646 108.808 20.4062 108.714 20.4062C108.651 20.4062 108.589 20.3906 108.526 20.3594C108.578 20.6823 108.636 21.0573 108.698 21.4844C108.761 21.901 108.823 22.3438 108.886 22.8125C108.948 23.2812 109.011 23.7604 109.073 24.25C109.136 24.7396 109.188 25.2083 109.229 25.6562C109.375 25.7188 109.464 25.8385 109.495 26.0156C109.495 26.026 109.506 26.0625 109.526 26.125C109.558 26.1875 109.625 26.25 109.729 26.3125C109.896 26.4062 110.078 26.4531 110.276 26.4531C110.401 26.4531 110.521 26.4375 110.636 26.4062C110.761 26.375 110.875 26.3438 110.979 26.3125C111.261 26.2083 111.537 26.0625 111.808 25.875C112.089 25.6771 112.349 25.4583 112.589 25.2188C112.828 24.9688 113.037 24.7083 113.214 24.4375C113.401 24.1562 113.542 23.8802 113.636 23.6094ZM112.37 18.9844C112.672 19.1719 112.959 19.401 113.229 19.6719C113.511 19.9427 113.756 20.2448 113.964 20.5781C114.172 20.9115 114.334 21.2656 114.448 21.6406C114.573 22.0156 114.636 22.401 114.636 22.7969C114.636 23.1823 114.578 23.5417 114.464 23.875C114.349 24.2083 114.183 24.5417 113.964 24.875C113.756 25.2083 113.511 25.5208 113.229 25.8125C112.948 26.1042 112.636 26.3646 112.292 26.5938C111.959 26.8229 111.62 27 111.276 27.125C110.933 27.2604 110.599 27.3281 110.276 27.3281C109.943 27.3281 109.625 27.2448 109.323 27.0781V27.4531C109.323 28.026 109.339 28.6354 109.37 29.2812C109.412 29.9271 109.453 30.526 109.495 31.0781C109.537 31.6302 109.573 32.0885 109.604 32.4531C109.646 32.8281 109.667 33.026 109.667 33.0469C109.667 33.1615 109.631 33.2604 109.558 33.3438C109.485 33.4271 109.375 33.474 109.229 33.4844C109.115 33.4844 109.016 33.4479 108.933 33.375C108.86 33.3021 108.813 33.2083 108.792 33.0938C108.792 33.0833 108.771 32.8906 108.729 32.5156C108.698 32.151 108.662 31.6875 108.62 31.125C108.578 30.5729 108.537 29.9688 108.495 29.3125C108.464 28.6562 108.448 28.0365 108.448 27.4531C108.448 27.0781 108.422 26.6198 108.37 26.0781C108.328 25.5365 108.271 24.974 108.198 24.3906C108.136 23.7969 108.063 23.2083 107.979 22.625C107.896 22.0417 107.818 21.5156 107.745 21.0469C107.672 20.5781 107.61 20.1979 107.558 19.9062C107.516 19.6042 107.495 19.4427 107.495 19.4219C107.495 19.1823 107.641 19.0365 107.933 18.9844C108.047 18.9844 108.141 19.0156 108.214 19.0781C108.297 19.1406 108.349 19.2292 108.37 19.3438L108.417 19.6406C108.792 19.2865 109.203 19.0312 109.651 18.875C110.099 18.7083 110.537 18.625 110.964 18.625C111.516 18.625 111.985 18.7448 112.37 18.9844Z" fill="#2C3F91" fill-opacity="0.8"/>
<path d="M105.058 23.6094C105.11 23.474 105.141 23.3385 105.151 23.2031C105.172 23.0677 105.183 22.9323 105.183 22.7969C105.183 22.4635 105.125 22.1406 105.011 21.8281C104.907 21.5156 104.766 21.2292 104.589 20.9688C104.412 20.6979 104.214 20.4583 103.995 20.25C103.776 20.0312 103.558 19.8542 103.339 19.7188C103.078 19.5729 102.766 19.5 102.401 19.5C102.078 19.5 101.74 19.5625 101.386 19.6875C101.032 19.8125 100.714 20.0104 100.433 20.2812C100.328 20.3646 100.229 20.4062 100.136 20.4062C100.073 20.4062 100.011 20.3906 99.9482 20.3594C100 20.6823 100.058 21.0573 100.12 21.4844C100.183 21.901 100.245 22.3438 100.308 22.8125C100.37 23.2812 100.433 23.7604 100.495 24.25C100.558 24.7396 100.61 25.2083 100.651 25.6562C100.797 25.7188 100.886 25.8385 100.917 26.0156C100.917 26.026 100.927 26.0625 100.948 26.125C100.979 26.1875 101.047 26.25 101.151 26.3125C101.318 26.4062 101.5 26.4531 101.698 26.4531C101.823 26.4531 101.943 26.4375 102.058 26.4062C102.183 26.375 102.297 26.3438 102.401 26.3125C102.683 26.2083 102.959 26.0625 103.229 25.875C103.511 25.6771 103.771 25.4583 104.011 25.2188C104.25 24.9688 104.459 24.7083 104.636 24.4375C104.823 24.1562 104.964 23.8802 105.058 23.6094ZM103.792 18.9844C104.094 19.1719 104.381 19.401 104.651 19.6719C104.933 19.9427 105.177 20.2448 105.386 20.5781C105.594 20.9115 105.756 21.2656 105.87 21.6406C105.995 22.0156 106.058 22.401 106.058 22.7969C106.058 23.1823 106 23.5417 105.886 23.875C105.771 24.2083 105.604 24.5417 105.386 24.875C105.177 25.2083 104.933 25.5208 104.651 25.8125C104.37 26.1042 104.058 26.3646 103.714 26.5938C103.381 26.8229 103.042 27 102.698 27.125C102.354 27.2604 102.021 27.3281 101.698 27.3281C101.365 27.3281 101.047 27.2448 100.745 27.0781V27.4531C100.745 28.026 100.761 28.6354 100.792 29.2812C100.834 29.9271 100.875 30.526 100.917 31.0781C100.959 31.6302 100.995 32.0885 101.026 32.4531C101.068 32.8281 101.089 33.026 101.089 33.0469C101.089 33.1615 101.052 33.2604 100.979 33.3438C100.907 33.4271 100.797 33.474 100.651 33.4844C100.537 33.4844 100.438 33.4479 100.354 33.375C100.282 33.3021 100.235 33.2083 100.214 33.0938C100.214 33.0833 100.193 32.8906 100.151 32.5156C100.12 32.151 100.084 31.6875 100.042 31.125C100 30.5729 99.9587 29.9688 99.917 29.3125C99.8857 28.6562 99.8701 28.0365 99.8701 27.4531C99.8701 27.0781 99.8441 26.6198 99.792 26.0781C99.7503 25.5365 99.693 24.974 99.6201 24.3906C99.5576 23.7969 99.4847 23.2083 99.4014 22.625C99.318 22.0417 99.2399 21.5156 99.167 21.0469C99.0941 20.5781 99.0316 20.1979 98.9795 19.9062C98.9378 19.6042 98.917 19.4427 98.917 19.4219C98.917 19.1823 99.0628 19.0365 99.3545 18.9844C99.4691 18.9844 99.5628 19.0156 99.6357 19.0781C99.7191 19.1406 99.7712 19.2292 99.792 19.3438L99.8389 19.6406C100.214 19.2865 100.625 19.0312 101.073 18.875C101.521 18.7083 101.959 18.625 102.386 18.625C102.938 18.625 103.407 18.7448 103.792 18.9844Z" fill="#2C3F91" fill-opacity="0.8"/>
<path d="M93.1357 26.5938C93.3545 26.5938 93.5941 26.4948 93.8545 26.2969C94.1149 26.0885 94.3649 25.8125 94.6045 25.4688C94.8545 25.125 95.0785 24.724 95.2764 24.2656C95.4743 23.7969 95.6201 23.3021 95.7139 22.7812C95.641 22.2812 95.5837 21.7552 95.542 21.2031C95.5003 20.651 95.4743 20.0625 95.4639 19.4375C95.3493 19.3438 95.292 19.2292 95.292 19.0938C95.2191 19.0625 95.141 19.0365 95.0576 19.0156C94.9847 18.9948 94.9014 18.9844 94.8076 18.9844C94.6722 18.9844 94.4795 19.0156 94.2295 19.0781C93.9795 19.1302 93.7087 19.224 93.417 19.3594C93.1253 19.4844 92.8285 19.651 92.5264 19.8594C92.2347 20.0677 91.9639 20.3229 91.7139 20.625C91.4743 20.9271 91.2764 21.276 91.1201 21.6719C90.9639 22.0677 90.8857 22.5156 90.8857 23.0156C90.8857 23.8073 90.9482 24.4375 91.0732 24.9062C91.2087 25.375 91.3805 25.7344 91.5889 25.9844C91.8076 26.2344 92.0472 26.401 92.3076 26.4844C92.5785 26.5573 92.8545 26.5938 93.1357 26.5938ZM96.6045 22.7812C96.6982 23.4271 96.8076 24.0052 96.9326 24.5156C97.0576 25.026 97.1722 25.4583 97.2764 25.8125C97.391 26.1667 97.4847 26.4427 97.5576 26.6406C97.641 26.8281 97.6826 26.9271 97.6826 26.9375C97.693 26.9688 97.6982 27 97.6982 27.0312C97.7087 27.0521 97.7139 27.0781 97.7139 27.1094C97.7139 27.2969 97.6305 27.4323 97.4639 27.5156C97.3805 27.5365 97.318 27.5469 97.2764 27.5469C97.0785 27.5469 96.9482 27.4635 96.8857 27.2969C96.8649 27.2552 96.766 27.0104 96.5889 26.5625C96.4222 26.1042 96.2451 25.4688 96.0576 24.6562C95.891 25.0625 95.693 25.4375 95.4639 25.7812C95.2451 26.125 95.0055 26.4219 94.7451 26.6719C94.4951 26.9219 94.2295 27.1146 93.9482 27.25C93.6774 27.3958 93.4066 27.4688 93.1357 27.4688C92.0732 27.4688 91.2868 27.1042 90.7764 26.375C90.266 25.6458 90.0107 24.526 90.0107 23.0156C90.0107 22.3906 90.1045 21.8385 90.292 21.3594C90.4795 20.8698 90.7191 20.4427 91.0107 20.0781C91.3128 19.7135 91.6462 19.4062 92.0107 19.1562C92.3857 18.9062 92.7503 18.7031 93.1045 18.5469C93.4587 18.3906 93.7868 18.2812 94.0889 18.2188C94.391 18.1458 94.6305 18.1094 94.8076 18.1094C95.1201 18.1094 95.391 18.1719 95.6201 18.2969C95.8493 18.4115 96.0368 18.5469 96.1826 18.7031C96.3389 18.849 96.4535 18.9896 96.5264 19.125C96.5993 19.25 96.6357 19.3177 96.6357 19.3281C96.667 19.3802 96.6826 19.4375 96.6826 19.5C96.6826 19.6042 96.6357 19.7135 96.542 19.8281C96.6357 20.3177 96.6826 20.9635 96.6826 21.7656C96.6826 21.9323 96.6722 22.099 96.6514 22.2656C96.641 22.4323 96.6253 22.6042 96.6045 22.7812Z" fill="#2C3F91" fill-opacity="0.8"/>
</svg>
