<svg width="63" height="45" viewBox="0 0 63 45" fill="none" xmlns="http://www.w3.org/2000/svg">
<path d="M37.8625 10.5948L37.5356 10.9732V10.9732L37.8625 10.5948ZM61.4662 43.9691C61.3812 44.2319 61.0993 44.376 60.8366 44.291L56.5548 42.9066C56.2921 42.8217 56.148 42.5398 56.2329 42.2771C56.3179 42.0143 56.5997 41.8702 56.8625 41.9551L60.6685 43.1857L61.8991 39.3797C61.984 39.117 62.2659 38.9728 62.5286 39.0578C62.7914 39.1427 62.9355 39.4246 62.8506 39.6874L61.4662 43.9691ZM0.0117188 0.499756C0.0235278 -0.000104656 0.023714 -0.000100243 0.0240025 -9.33348e-05C0.0242353 -8.77627e-05 0.0246264 -7.83556e-05 0.0250915 -6.70653e-05C0.0260219 -4.44675e-05 0.0273606 -1.16172e-05 0.0291051 3.1952e-05C0.032594 0.000119061 0.0377059 0.000249043 0.0444204 0.000425835C0.0578494 0.000779422 0.0776889 0.0013202 0.103775 0.00207947C0.155948 0.00359791 0.23311 0.00599032 0.333954 0.00950693C0.535637 0.0165401 0.832063 0.0280706 1.21276 0.0461015C1.97411 0.0821615 3.07273 0.144231 4.42481 0.248346C7.12832 0.456528 10.8484 0.833056 14.9136 1.50671C18.9773 2.18013 23.3954 3.15201 27.4917 4.55368C31.5827 5.95355 35.3842 7.79257 38.1894 10.2165L37.8625 10.5948L37.5356 10.9732C34.8671 8.66735 31.2003 6.87961 27.168 5.49983C23.1409 4.12185 18.7806 3.16117 14.7501 2.49326C10.721 1.82558 7.031 1.45199 4.34803 1.24539C3.00686 1.14212 1.91813 1.08063 1.16545 1.04498C0.789123 1.02716 0.496857 1.0158 0.299103 1.0089C0.200228 1.00545 0.124985 1.00312 0.0746829 1.00166C0.0495318 1.00092 0.0306161 1.00041 0.0180993 1.00008C0.0118409 0.999915 0.00718229 0.999796 0.00414386 0.99972C0.00262465 0.999682 0.0015105 0.999655 0.000803952 0.999638C0.000450621 0.999629 0.00022719 0.999624 5.0162e-05 0.99962C-7.1219e-05 0.999617 -9.02951e-05 0.999616 0.0117188 0.499756ZM37.8625 10.5948L38.1894 10.2165C43.7535 15.0244 49.5695 23.3883 53.9773 30.5069C56.1862 34.0741 58.05 37.3429 59.3616 39.7199C60.0175 40.9086 60.5355 41.8746 60.8898 42.5439C61.0669 42.8785 61.2031 43.139 61.2952 43.316C61.3412 43.4046 61.3762 43.4722 61.3997 43.5179C61.4115 43.5407 61.4204 43.558 61.4264 43.5697C61.4294 43.5756 61.4316 43.58 61.4332 43.583C61.434 43.5845 61.4345 43.5856 61.4349 43.5864C61.4351 43.5868 61.4353 43.5871 61.4354 43.5873C61.4355 43.5875 61.4356 43.5877 60.9904 43.8153C60.5452 44.0429 60.5452 44.0429 60.5451 44.0428C60.5451 44.0426 60.5449 44.0424 60.5448 44.042C60.5444 44.0414 60.5439 44.0403 60.5432 44.039C60.5418 44.0362 60.5396 44.032 60.5368 44.0264C60.531 44.0152 60.5224 43.9984 60.5109 43.9761C60.4878 43.9314 60.4534 43.8648 60.4079 43.7773C60.317 43.6023 60.1819 43.344 60.006 43.0117C59.6541 42.347 59.1389 41.3861 58.4861 40.2031C57.1803 37.8367 55.325 34.5829 53.1271 31.0333C48.7215 23.9183 42.9736 15.672 37.5356 10.9732L37.8625 10.5948Z" fill="#2C3F91" fill-opacity="0.9"/>
</svg>
