<svg width="135" height="126" viewBox="0 0 135 126" fill="none" xmlns="http://www.w3.org/2000/svg">
<path d="M40.7286 45.4351C40.8805 45.5621 41.1324 45.6505 41.4844 45.7004C41.8511 45.749 42.2566 45.735 42.7008 45.6583C43.1518 45.5737 43.6142 45.4104 44.088 45.1684C44.5619 44.9264 44.9926 44.5737 45.3801 44.1102C45.7543 43.6627 46.0257 43.2243 46.1944 42.7951C46.3778 42.3646 46.4945 41.9733 46.5444 41.6213C46.609 41.268 46.6195 40.9713 46.5759 40.7311C46.5402 40.4977 46.4971 40.3462 46.4465 40.2768C46.3107 40.1632 46.1768 40.0716 46.0449 40.0021C45.9276 39.9312 45.8457 39.883 45.799 39.8576C45.7031 39.7774 45.6486 39.664 45.6355 39.5173C45.3689 39.4301 45.0108 39.4362 44.5612 39.5355C44.1116 39.6349 43.6378 39.7955 43.14 40.0174C42.6489 40.2313 42.1663 40.5 41.6923 40.8233C41.225 41.1387 40.8443 41.4721 40.5504 41.8238C40.243 42.1914 40.043 42.5605 39.9504 42.9311C39.8645 43.2938 39.8506 43.6352 39.9088 43.9554C39.9669 44.2755 40.0705 44.5658 40.2195 44.8261C40.3751 45.0784 40.5448 45.2814 40.7286 45.4351ZM47.0198 39.6155C47.1876 39.7558 47.3092 40.0001 47.3847 40.3483C47.4748 40.6952 47.4889 41.1007 47.4268 41.5647C47.3793 42.0275 47.2465 42.5274 47.0282 43.0645C46.818 43.6083 46.4924 44.144 46.0514 44.6714C45.6037 45.2069 45.0976 45.6255 44.5329 45.9273C43.9683 46.2292 43.4058 46.431 42.8455 46.5328C42.2931 46.6413 41.773 46.6545 41.285 46.5723C40.8116 46.4889 40.4391 46.3336 40.1674 46.1064C39.8557 45.8458 39.5981 45.5287 39.3947 45.1549C39.1912 44.7811 39.0632 44.3821 39.0105 43.9579C38.9645 43.5257 39.0059 43.0783 39.1347 42.6157C39.2635 42.1531 39.5116 41.7021 39.8791 41.2625C40.1129 40.9828 40.4061 40.7052 40.7587 40.4297C41.1112 40.1542 41.4877 39.8987 41.8882 39.6633C42.3034 39.4266 42.7252 39.2225 43.1536 39.0511C43.5966 38.8785 44.0216 38.7518 44.4285 38.6711C44.8355 38.5904 45.2109 38.5716 45.555 38.6149C45.9057 38.6501 46.1969 38.7646 46.4287 38.9584C46.5166 39.0319 46.5825 39.1073 46.6264 39.1848C46.6849 39.2609 46.7288 39.3383 46.758 39.417C46.798 39.4504 46.8379 39.4838 46.8779 39.5173C46.9245 39.5427 46.9718 39.5754 47.0198 39.6155Z" fill="#2C3F91" fill-opacity="0.8"/>
<path d="M37.2081 40.1699C37.2922 40.118 37.391 40.1055 37.5043 40.1323C37.9094 39.5342 38.289 38.9826 38.6433 38.4777C39.0055 37.9795 39.3102 37.5825 39.5574 37.2868L39.6777 37.143C39.6312 37.0362 39.6187 36.9375 39.6402 36.8468C39.7329 36.3948 39.7522 36.0308 39.6979 35.7546C39.6517 35.4851 39.6079 35.3263 39.5667 35.2782C39.4308 35.1647 39.3003 35.0691 39.175 34.9915C39.0578 34.9207 38.9758 34.8725 38.9292 34.8471C38.8253 34.7602 38.7748 34.6501 38.7777 34.5168C38.5111 34.4296 38.1489 34.4324 37.6913 34.525C37.2417 34.6243 36.768 34.7849 36.2701 35.0069C35.779 35.2208 35.2964 35.4895 34.8224 35.8128C34.3551 36.1281 33.9745 36.4616 33.6805 36.8133C33.3665 37.1889 33.1665 37.558 33.0806 37.9206C32.9946 38.2832 32.9774 38.6286 33.0289 38.9568C33.087 39.277 33.194 39.5633 33.3496 39.8156C33.5132 40.0746 33.6869 40.2809 33.8708 40.4346C33.9906 40.5348 34.1639 40.6118 34.3905 40.6655C34.6318 40.7179 34.8999 40.7383 35.1947 40.7268C35.5041 40.714 35.8289 40.6665 36.1692 40.5843C36.5161 40.4942 36.8624 40.356 37.2081 40.1699ZM40.2287 37.8481C40.0751 38.0319 39.8893 38.2703 39.6714 38.5634C39.4602 38.8484 39.2297 39.1648 38.9797 39.5125C38.7444 39.8589 38.4891 40.2293 38.2137 40.6236C37.945 41.01 37.677 41.4037 37.4096 41.8047C37.1409 42.191 36.8822 42.5654 36.6336 42.9278C36.3862 43.3048 36.1509 43.6512 35.9277 43.9669C35.6978 44.2906 35.4872 44.5831 35.2961 44.8442C35.105 45.1053 34.9392 45.3197 34.7989 45.4876C34.5584 45.7753 34.2653 46.0122 33.9195 46.1983C33.5671 46.3925 33.1895 46.5113 32.7866 46.5546C32.3838 46.598 31.9657 46.554 31.5325 46.4226C31.1005 46.3059 30.6768 46.0738 30.2612 45.7263C29.0785 44.7375 28.7725 43.3819 29.3435 41.6597C29.3542 41.6144 29.383 41.5637 29.4297 41.5078C29.55 41.3639 29.7048 41.3168 29.8941 41.3665C29.9248 41.3785 29.9514 41.3873 29.9741 41.3926C29.9981 41.4127 30.022 41.4327 30.046 41.4528C30.1899 41.573 30.2303 41.7358 30.1673 41.9411C30.1204 42.0784 30.0667 42.2644 30.0063 42.499C29.9472 42.7483 29.9228 43.013 29.933 43.2931C29.9432 43.5732 30.0101 43.8667 30.1337 44.1737C30.2652 44.4873 30.4948 44.7811 30.8225 45.0551C31.1661 45.3424 31.5046 45.5303 31.8378 45.6188C32.1711 45.7074 32.4832 45.7239 32.774 45.6684C33.0662 45.6275 33.3277 45.5339 33.5587 45.3875C33.7977 45.2479 33.9873 45.0941 34.1276 44.9263C34.2612 44.7665 34.4236 44.556 34.6148 44.2949C34.7992 44.0418 35.0031 43.7574 35.2263 43.4416C35.4496 43.1259 35.6855 42.7869 35.9342 42.4245C36.1761 42.0701 36.4214 41.7117 36.6701 41.3494C36.3178 41.4622 35.9729 41.5336 35.6354 41.5638C35.306 41.6006 34.9919 41.6027 34.6932 41.5703C34.3958 41.5524 34.1285 41.4987 33.8912 41.4089C33.6552 41.3339 33.4614 41.2328 33.3095 41.1059C32.9978 40.8453 32.7363 40.5248 32.5248 40.1444C32.3147 39.7786 32.1833 39.3836 32.1306 38.9594C32.0846 38.5272 32.126 38.0798 32.2548 37.6172C32.3903 37.1466 32.6417 36.6916 33.0092 36.252C33.2431 35.9723 33.5363 35.6947 33.8888 35.4192C34.2413 35.1437 34.6179 34.8882 35.0184 34.6528C35.4268 34.424 35.8486 34.22 36.2837 34.0406C36.7268 33.868 37.1484 33.7453 37.5487 33.6725C37.9556 33.5918 38.331 33.5731 38.6751 33.6163C39.0258 33.6516 39.317 33.7661 39.5488 33.9598C39.7166 34.1001 39.8264 34.253 39.8781 34.4185C39.9248 34.4439 39.9681 34.4733 40.008 34.5067C40.048 34.5401 40.0919 34.5769 40.1399 34.617C40.2837 34.7372 40.3968 34.9268 40.4791 35.1857C40.5614 35.4446 40.5989 35.7407 40.5917 36.0741C40.6878 35.9916 40.7853 35.9237 40.8841 35.8705C40.9909 35.824 41.1115 35.8502 41.2461 35.9491L41.5778 36.1857L41.3652 36.5375C41.3518 36.5535 41.3384 36.5695 41.3251 36.5854C41.3184 36.5934 41.2877 36.6221 41.2329 36.6713C41.1928 36.7193 41.0986 36.8238 40.9503 36.985C40.81 37.1528 40.5695 37.4405 40.2287 37.8481Z" fill="#2C3F91" fill-opacity="0.8"/>
<path d="M27.9264 34.7315C28.0782 34.8584 28.3301 34.9469 28.6822 34.9968C29.0489 35.0454 29.4543 35.0314 29.8986 34.9547C30.3495 34.8701 30.8119 34.7068 31.2858 34.4648C31.7596 34.2228 32.1903 33.8701 32.5778 33.4066C32.952 32.959 33.2235 32.5207 33.3922 32.0915C33.5756 31.661 33.6923 31.2697 33.7422 30.9177C33.8068 30.5644 33.8172 30.2676 33.7736 30.0275C33.738 29.794 33.6949 29.6426 33.6443 29.5732C33.5084 29.4596 33.3746 29.368 33.2426 29.2984C33.1254 29.2276 33.0434 29.1794 32.9968 29.154C32.9009 29.0738 32.8464 28.9604 32.8333 28.8136C32.5667 28.7265 32.2086 28.7326 31.7589 28.8319C31.3093 28.9312 30.8356 29.0919 30.3378 29.3138C29.8466 29.5277 29.364 29.7964 28.8901 30.1197C28.4227 30.435 28.0421 30.7685 27.7481 31.1202C27.4408 31.4878 27.2408 31.8569 27.1482 32.2275C27.0622 32.5902 27.0483 32.9316 27.1065 33.2517C27.1647 33.5719 27.2682 33.8622 27.4172 34.1225C27.5728 34.3748 27.7426 34.5778 27.9264 34.7315ZM34.2175 28.9119C34.3854 29.0522 34.507 29.2965 34.5825 29.6447C34.6726 29.9916 34.6866 30.3971 34.6245 30.8611C34.5771 31.3238 34.4443 31.8238 34.226 32.3609C34.0157 32.9047 33.6901 33.4404 33.2491 33.9678C32.8015 34.5032 32.2953 34.9219 31.7307 35.2237C31.166 35.5256 30.6036 35.7274 30.0432 35.8292C29.4909 35.9377 28.9707 35.9509 28.4827 35.8687C28.0094 35.7853 27.6369 35.63 27.3651 35.4028C27.0535 35.1422 26.7959 34.825 26.5924 34.4513C26.389 34.0775 26.2609 33.6785 26.2082 33.2543C26.1623 32.8221 26.2037 32.3747 26.3324 31.9121C26.4612 31.4495 26.7093 30.9985 27.0768 30.5589C27.3107 30.2792 27.6039 30.0016 27.9564 29.7261C28.309 29.4506 28.6855 29.1951 29.086 28.9597C29.5011 28.7229 29.9229 28.5189 30.3513 28.3475C30.7944 28.1749 31.2194 28.0482 31.6263 27.9675C32.0332 27.8868 32.4087 27.868 32.7527 27.9113C33.1034 27.9465 33.3947 28.061 33.6264 28.2548C33.7143 28.3283 33.7802 28.4037 33.8241 28.4811C33.8827 28.5573 33.9266 28.6347 33.9558 28.7134C33.9957 28.7468 34.0357 28.7802 34.0756 28.8136C34.1223 28.8391 34.1696 28.8718 34.2175 28.9119Z" fill="#2C3F91" fill-opacity="0.8"/>
<path d="M27.7259 26.1528C27.5121 26.4086 27.2708 26.7296 27.0021 27.1159C26.7334 27.5023 26.4554 27.908 26.1679 28.333C25.8885 28.7646 25.609 29.1963 25.3296 29.628C25.0648 30.0584 24.8228 30.4534 24.6035 30.8132C24.3909 31.1649 24.217 31.4541 24.082 31.6806C23.9469 31.9071 23.8727 32.0283 23.8593 32.0443C23.7056 32.2281 23.5002 32.2465 23.243 32.0994C23.1551 32.0259 23.1026 31.9344 23.0854 31.825C23.0696 31.7303 23.0904 31.6323 23.1479 31.531C23.16 31.5004 23.2369 31.3678 23.3786 31.1333C23.5204 30.8988 23.6976 30.6057 23.9102 30.2539C24.1308 29.9088 24.3735 29.5211 24.6383 29.0907C24.9177 28.659 25.1971 28.2274 25.4766 27.7957C25.7627 27.356 26.0401 26.943 26.3088 26.5567C26.5855 26.177 26.8341 25.8553 27.0546 25.5916C27.3753 25.208 27.704 24.7904 28.0409 24.3388C28.3777 23.8872 28.6878 23.4676 28.9712 23.0799C29.2612 22.6843 29.4978 22.3526 29.681 22.0848C29.8641 21.817 29.9624 21.6751 29.9757 21.6591C30.0492 21.5712 30.1373 21.5227 30.24 21.5135C30.3494 21.4964 30.4667 21.5265 30.592 21.6041C30.6799 21.6776 30.7251 21.7697 30.7276 21.8804C30.7448 21.9898 30.7246 22.0951 30.6671 22.1964C30.647 22.2204 30.5454 22.3663 30.3623 22.634C30.1791 22.9018 29.9425 23.2335 29.6525 23.6292C29.3691 24.0168 29.059 24.4365 28.7222 24.8881C28.3854 25.3396 28.0533 25.7612 27.7259 26.1528Z" fill="#2C3F91" fill-opacity="0.8"/>
<path d="M16.9626 23.8747C17.0494 23.8522 17.1427 23.8623 17.2427 23.9052C17.4553 23.5534 17.6846 23.1817 17.9306 22.79C18.1914 22.3969 18.4454 22.0119 18.6927 21.6348C18.9547 21.2565 19.204 20.9014 19.4406 20.5697C19.6839 20.23 19.9024 19.9443 20.0962 19.7125C20.143 19.6566 20.1897 19.6007 20.2365 19.5447C20.2833 19.4888 20.3294 19.4255 20.3749 19.3549C20.2804 19.208 20.2813 19.0526 20.3776 18.8887C20.391 18.8728 20.399 18.8388 20.4018 18.7868C20.4192 18.7334 20.4093 18.6641 20.3721 18.5786C20.3349 18.4932 20.2723 18.4138 20.1844 18.3403C20.0965 18.2668 19.9953 18.2093 19.8806 18.1677C19.7727 18.1182 19.6694 18.0794 19.5707 18.0512C19.2601 17.968 18.9054 17.9294 18.5066 17.9355C18.1078 17.9415 17.701 17.9815 17.2861 18.0555C16.8791 18.1363 16.4788 18.2496 16.0852 18.3957C15.7062 18.5405 15.3738 18.7107 15.0881 18.9063C14.8517 19.0753 14.64 19.2717 14.4529 19.4954C14.2191 19.7751 14.0459 20.0716 13.9333 20.3848C13.8288 20.7048 13.7643 21.0174 13.7398 21.3228C13.7233 21.6349 13.7421 21.929 13.7964 22.2052C13.8573 22.4733 13.9336 22.7069 14.0253 22.9057C14.0811 23.0338 14.185 23.1614 14.3368 23.2883C14.6005 23.5088 14.9603 23.6874 15.4163 23.8242C15.8868 23.9597 16.4023 23.9765 16.9626 23.8747ZM20.7675 20.2738C20.5537 20.5295 20.3085 20.8472 20.0318 21.2269C19.7631 21.6132 19.489 22.0222 19.2096 22.4539C18.9301 22.8856 18.6507 23.3173 18.3712 23.7489C18.1065 24.1793 17.8604 24.571 17.6331 24.9241C17.4205 25.2759 17.2467 25.565 17.1116 25.7915C16.9765 26.018 16.9023 26.1393 16.8889 26.1553C16.8221 26.2352 16.734 26.2837 16.6246 26.3009C16.5152 26.318 16.3979 26.2878 16.2727 26.2103C16.1928 26.1435 16.1442 26.0554 16.1271 25.946C16.1032 25.8446 16.1201 25.7432 16.1776 25.642C16.1909 25.626 16.2424 25.54 16.332 25.3841C16.4296 25.2349 16.556 25.0351 16.7111 24.7846C16.1028 24.8463 15.5474 24.796 15.0449 24.6339C14.5423 24.4717 14.1232 24.2503 13.7876 23.9696C13.5158 23.7425 13.3328 23.5148 13.2385 23.2866C13.0923 22.9742 12.9841 22.6326 12.914 22.2618C12.8586 21.8896 12.8472 21.5134 12.8798 21.1334C12.9191 20.7453 13.0105 20.36 13.1538 19.9775C13.3051 19.6016 13.5177 19.2499 13.7917 18.9222C14.0121 18.6585 14.2786 18.4128 14.5911 18.1853C14.9249 17.9484 15.3133 17.7436 15.7564 17.571C16.2075 17.405 16.6658 17.279 17.1314 17.1931C17.597 17.1071 18.0592 17.0658 18.518 17.0692C18.9835 17.0646 19.4055 17.112 19.7841 17.2113C20.1854 17.316 20.5059 17.4685 20.7457 17.669C20.8416 17.7492 20.9235 17.838 20.9913 17.9355C21.0659 18.0249 21.1357 18.1444 21.2008 18.2939C21.432 17.9848 21.6526 17.6804 21.8625 17.3807C22.0803 17.0876 22.2675 16.8232 22.4239 16.5874C22.595 16.3502 22.7293 16.1571 22.8269 16.0078C22.9325 15.8653 22.992 15.786 23.0054 15.7701C23.0789 15.6822 23.167 15.6336 23.2697 15.6244C23.3871 15.614 23.5044 15.6442 23.6216 15.715C23.7095 15.7885 23.7547 15.8806 23.7572 15.9913C23.7744 16.1007 23.7542 16.2061 23.6967 16.3073C23.6767 16.3313 23.5751 16.4772 23.3919 16.745C23.2088 17.0127 22.9755 17.3405 22.6921 17.7281C22.4168 18.1225 22.1073 18.5494 21.7638 19.009C21.427 19.4606 21.0949 19.8822 20.7675 20.2738Z" fill="#2C3F91" fill-opacity="0.8"/>
<path d="M15.9936 14.2665C16.1146 14.4628 16.0776 14.6695 15.8825 14.8865C15.8612 14.8958 15.729 14.989 15.486 15.166C15.2496 15.335 14.9532 15.5352 14.5968 15.7667C14.2483 16.0049 13.8711 16.253 13.4652 16.5111C13.074 16.7679 12.7129 16.9887 12.3819 17.1736C12.0575 17.3505 11.689 17.5719 11.2765 17.838C10.8639 18.1041 10.4727 18.3609 10.1029 18.6084C9.73306 18.8558 9.4153 19.0654 9.14961 19.237C8.8986 19.4073 8.76975 19.4965 8.76307 19.5045C8.5828 19.6389 8.38013 19.6052 8.15506 19.4035C8.034 19.2072 8.07101 19.0005 8.26608 18.7835L8.47635 18.6538C8.48041 18.6164 8.50072 18.4297 8.53727 18.0937C8.57382 17.7577 8.6519 17.307 8.7715 16.7417C8.8991 16.1831 9.05205 15.6185 9.23035 15.0479C9.52931 14.0895 9.87556 13.1637 10.2691 12.2708C9.9273 12.501 9.56415 12.7405 9.17964 12.9892C8.80181 13.23 8.45071 13.4389 8.12633 13.6157C7.80994 13.7993 7.44148 14.0208 7.02094 14.2802C6.6084 14.5462 6.21721 14.803 5.84737 15.0505C5.47753 15.298 5.16377 15.5109 4.90607 15.6892C4.65506 15.8595 4.52621 15.9486 4.51953 15.9566C4.32328 16.0777 4.11661 16.0407 3.89953 15.8456C3.78647 15.656 3.82747 15.4527 4.02254 15.2356L4.22083 15.0959C4.22489 15.0586 4.25259 14.8305 4.30395 14.4118C4.36198 13.9851 4.47759 13.4165 4.65078 12.7059C4.82397 11.9953 5.08271 11.1661 5.427 10.2184C5.76329 9.26402 6.22241 8.2358 6.80434 7.13374C6.95133 6.95793 7.15675 6.93959 7.42061 7.07872C7.59642 7.22571 7.63081 7.40381 7.52378 7.61304C7.12644 8.38062 6.72287 9.28557 6.31308 10.3279C6.17382 10.6731 6.01569 11.1383 5.8387 11.7235C5.64704 12.3101 5.50149 12.8333 5.40206 13.2933C5.30263 13.7532 5.22933 14.1332 5.18217 14.4333C5.57336 14.1765 5.99992 13.9017 6.46186 13.6091C6.92379 13.3164 7.33765 13.065 7.70343 12.8548C8.0278 12.678 8.38559 12.4612 8.77678 12.2044C9.17596 11.9543 9.5498 11.7101 9.89828 11.472C10.2534 11.2258 10.5565 11.0176 10.8075 10.8472C11.0586 10.6769 11.1981 10.5831 11.2261 10.5658L11.4002 10.5281L11.5702 10.5684L11.6901 10.6686C11.7061 10.682 11.7147 10.696 11.716 10.7107C11.732 10.724 11.7573 10.7587 11.7919 10.8148C11.7932 10.8295 11.7945 10.8442 11.7958 10.8588C11.8038 10.8655 11.8111 10.9055 11.8176 10.9789L11.7793 11.1709C11.3807 11.9238 11.0421 12.6455 10.7635 13.3359C10.493 14.033 10.2659 14.6781 10.0822 15.2714C9.89857 15.8646 9.75702 16.3912 9.65758 16.8511C9.55815 17.3111 9.48485 17.6911 9.43769 17.9911C9.82888 17.7343 10.2554 17.4596 10.7174 17.1669C11.1793 16.8742 11.5932 16.6228 11.959 16.4127C12.2753 16.2291 12.6291 16.009 13.0203 15.7522C13.4195 15.5021 13.79 15.262 14.1318 15.0318C14.4803 14.7936 14.7727 14.59 15.009 14.421C15.2534 14.2587 15.3789 14.1735 15.3855 14.1655C15.4617 14.107 15.5517 14.0804 15.6558 14.0859C15.7678 14.0981 15.8804 14.1583 15.9936 14.2665Z" fill="#2C3F91" fill-opacity="0.8"/>
<path d="M51.4955 52.2408C51.4959 52.2414 51.4974 52.2425 51.4983 52.2437C51.5002 52.246 51.5025 52.2501 51.5063 52.2548C51.5142 52.2645 51.5268 52.2794 51.5427 52.2989C51.5743 52.338 51.6217 52.3968 51.6843 52.4732C51.8097 52.6263 51.9958 52.8521 52.2381 53.1404C52.7228 53.7173 53.4323 54.5454 54.3276 55.5491C56.1189 57.5572 58.6538 60.2647 61.6279 63.0636C64.6031 65.8635 68.0113 68.748 71.549 71.1145C75.0913 73.484 78.7361 75.316 82.1878 76.0397C89.2217 77.5143 99.2643 77.0839 107.593 76.2725C111.749 75.8677 115.461 75.3699 118.135 74.9732C119.439 74.7798 120.495 74.6097 121.234 74.4871L118.544 72.6201C118.317 72.4628 118.26 72.151 118.417 71.9241C118.574 71.6972 118.887 71.6409 119.113 71.7983L122.81 74.3635C123.037 74.5209 123.093 74.8323 122.936 75.0592L120.371 78.7571C120.214 78.9837 119.902 79.0397 119.675 78.8824C119.448 78.725 119.393 78.4136 119.55 78.1867L121.436 75.4685C120.689 75.5924 119.613 75.7645 118.281 75.9621C115.596 76.3606 111.866 76.8612 107.69 77.268C99.3568 78.0798 89.1794 78.5267 81.9824 77.0179C78.3541 76.2572 74.5869 74.35 70.9932 71.946C67.3946 69.5388 63.9417 66.6147 60.9419 63.7918C57.9413 60.9679 55.3862 58.238 53.5813 56.2146C52.6787 55.2027 51.9634 54.3665 51.4731 53.783C51.2279 53.4912 51.038 53.2627 50.9102 53.1066C50.8465 53.0288 50.7979 52.9691 50.7651 52.9286C50.7487 52.9083 50.7365 52.8919 50.7281 52.8815C50.7241 52.8765 50.7209 52.8727 50.7188 52.87C50.7178 52.8688 50.7165 52.8679 50.7159 52.8672L50.7154 52.8664C50.7152 52.8662 50.7149 52.8657 51.1052 52.5532C51.4722 52.2593 51.4941 52.2418 51.4955 52.2408Z" fill="#2C3F91" fill-opacity="0.8"/>
</svg>
