<svg width="120" height="52" viewBox="0 0 120 52" fill="none" xmlns="http://www.w3.org/2000/svg">
<path d="M81.4694 28.1135L81.4661 28.1158C81.4639 28.1178 81.4609 28.1215 81.4564 28.1255C81.4471 28.1339 81.4322 28.1465 81.4134 28.1632C81.3758 28.1967 81.3196 28.247 81.2455 28.3123C81.097 28.4431 80.8768 28.6358 80.5911 28.8811C80.0195 29.372 79.1854 30.0745 78.1396 30.9203C76.0472 32.6123 73.1079 34.8744 69.7203 37.1555C66.3316 39.4375 62.5018 41.7329 58.628 43.4962C54.7492 45.2619 50.8561 46.4804 47.3329 46.6364C40.153 46.9543 31.8952 47.3753 23.5661 46.564C19.4108 46.1592 15.6981 45.6614 13.0246 45.2647C11.721 45.0712 10.6649 44.9011 9.9253 44.7785L12.616 42.9116C12.8428 42.7542 12.8999 42.4424 12.7426 42.2156C12.5852 41.9887 12.273 41.9323 12.0461 42.0897L8.34909 44.655C8.1222 44.8124 8.06637 45.1238 8.22378 45.3507L10.7885 49.0485C10.946 49.2751 11.2574 49.3311 11.4842 49.1738C11.7111 49.0164 11.7669 48.705 11.6095 48.4781L9.72396 45.7599C10.4703 45.8839 11.5461 46.0559 12.8783 46.2536C15.5638 46.652 19.2937 47.1527 23.4696 47.5594C31.8027 48.3712 40.0311 47.9603 47.3774 47.635C51.0809 47.471 55.107 46.198 59.0421 44.4067C62.9825 42.6131 66.8628 40.2858 70.2795 37.985C73.6973 35.6835 76.6601 33.4027 78.7685 31.6977C79.8229 30.8451 80.6639 30.1355 81.2421 29.639C81.5313 29.3907 81.7556 29.1958 81.907 29.0625C81.9824 28.9961 82.04 28.945 82.0789 28.9103C82.0984 28.893 82.1131 28.8787 82.1231 28.8698C82.1278 28.8655 82.1316 28.8623 82.1341 28.86L82.1374 28.8577C82.1374 28.8577 82.1387 28.8564 81.8041 28.4848C81.4894 28.1355 81.4694 28.1135 81.4694 28.1135Z" fill="#2C3F91" fill-opacity="0.8"/>
<path d="M112.336 6.78813C112.474 6.67675 112.626 6.63362 112.794 6.65874C112.963 6.66921 113.104 6.74328 113.215 6.88095C113.326 7.01862 113.37 7.17131 113.344 7.33901C113.327 7.50016 113.25 7.63642 113.112 7.7478C112.983 7.85262 112.833 7.8998 112.664 7.88933C112.503 7.87232 112.367 7.79497 112.255 7.6573C112.144 7.51962 112.097 7.37021 112.114 7.20906C112.132 7.03326 112.206 6.89295 112.336 6.78813Z" fill="#2C3F91" fill-opacity="0.8"/>
<path d="M110.757 8.06572C110.895 7.95434 111.047 7.91121 111.215 7.93633C111.384 7.94679 111.525 8.02086 111.636 8.15854C111.747 8.29621 111.79 8.4489 111.765 8.6166C111.748 8.77775 111.671 8.91401 111.533 9.02539C111.404 9.13021 111.254 9.17739 111.085 9.16692C110.924 9.1499 110.788 9.07256 110.676 8.93488C110.565 8.79721 110.518 8.6478 110.535 8.48665C110.553 8.31085 110.627 8.17054 110.757 8.06572Z" fill="#2C3F91" fill-opacity="0.8"/>
<path d="M109.178 9.3433C109.316 9.23193 109.468 9.1888 109.636 9.21392C109.805 9.22438 109.945 9.29845 110.057 9.43613C110.168 9.5738 110.211 9.72649 110.186 9.89419C110.169 10.0553 110.092 10.1916 109.954 10.303C109.825 10.4078 109.675 10.455 109.506 10.4445C109.345 10.4275 109.209 10.3501 109.097 10.2125C108.986 10.0748 108.939 9.92539 108.956 9.76424C108.974 9.58844 109.048 9.44813 109.178 9.3433Z" fill="#2C3F91" fill-opacity="0.8"/>
<path d="M106.971 10.0434C107.056 10.1487 107.16 10.2523 107.282 10.3541C107.406 10.4413 107.527 10.5244 107.645 10.6035C107.764 10.6679 107.88 10.7283 107.992 10.7846C108.098 10.8328 108.18 10.8673 108.237 10.8882C108.279 10.9075 108.314 10.926 108.342 10.9437C108.37 10.9615 108.397 10.9865 108.423 11.0189C108.528 11.1485 108.546 11.2948 108.477 11.4579C108.462 11.523 108.423 11.5818 108.358 11.6342C108.22 11.7456 108.073 11.7708 107.917 11.7098C107.91 11.7018 107.847 11.6728 107.726 11.623C107.605 11.5733 107.461 11.5025 107.293 11.4107C107.126 11.3042 106.95 11.1856 106.764 11.0548C106.586 10.9175 106.428 10.7638 106.29 10.5938C106.258 10.5533 106.218 10.512 106.17 10.47C106.131 10.4214 106.081 10.3679 106.02 10.3097C105.927 10.211 105.824 10.1001 105.711 9.97708C105.598 9.85406 105.47 9.70346 105.326 9.5253C105.234 9.41192 105.127 9.29699 105.006 9.18052C104.885 9.06405 104.758 8.93947 104.624 8.8068C104.442 8.63209 104.251 8.44524 104.05 8.24623C103.857 8.04068 103.658 7.81237 103.455 7.56132C103.331 7.40745 103.164 7.26763 102.955 7.14188C102.746 7.01612 102.518 6.93277 102.271 6.89182C102.017 6.84277 101.757 6.845 101.492 6.8985C101.221 6.9439 100.964 7.06488 100.721 7.26142C100.413 7.51037 100.183 7.78981 100.032 8.09974C99.8825 8.39501 99.7873 8.69974 99.7468 9.01394C99.6996 9.32005 99.6972 9.62346 99.7395 9.9242C99.7753 10.2168 99.8255 10.4777 99.8902 10.7067C100.291 11.1194 100.727 11.5505 101.198 12.0002C101.669 12.4499 102.114 12.8672 102.532 13.2521C102.952 13.6224 103.305 13.9336 103.589 14.1859C103.873 14.4381 104.026 14.5764 104.045 14.6007C104.111 14.6817 104.141 14.7775 104.137 14.8881C104.133 14.9988 104.08 15.1081 103.98 15.216C103.891 15.288 103.791 15.3219 103.681 15.3177C103.585 15.3149 103.496 15.2796 103.414 15.2117C103.394 15.1874 103.276 15.0823 103.058 14.8964C102.849 14.704 102.582 14.4647 102.257 14.1785C101.939 13.8858 101.585 13.5631 101.192 13.2106C100.793 12.85 100.399 12.4861 100.008 12.119C99.7968 12.2226 99.6036 12.1578 99.4283 11.9245C99.3166 11.7201 99.2102 11.4644 99.1093 11.1575C98.949 10.9925 98.8025 10.8363 98.67 10.6889C98.5308 10.5335 98.4056 10.387 98.2942 10.2493C97.9797 9.86057 97.6335 9.45738 97.2554 9.03971C96.8773 8.62205 96.5214 8.24006 96.1876 7.89373C95.8554 7.53276 95.5716 7.23984 95.3361 7.015C95.1087 6.7836 94.9885 6.6598 94.9754 6.6436C94.9033 6.55452 94.8727 6.4587 94.8835 6.35615C94.8959 6.23895 94.9482 6.12967 95.0403 6.02831C95.1294 5.95624 95.2293 5.92235 95.3399 5.92662C95.4506 5.9309 95.546 5.97431 95.6261 6.05684C95.6458 6.08113 95.766 6.20493 95.9869 6.42823C96.2012 6.64343 96.4686 6.9161 96.7893 7.24623C97.11 7.57635 97.4561 7.9462 97.8276 8.35577C98.1925 8.75723 98.5323 9.15233 98.8467 9.54106C98.8423 9.02212 98.9338 8.50592 99.1214 7.99244C99.3105 7.46432 99.6601 6.99389 100.17 6.58115C100.494 6.31909 100.842 6.14475 101.214 6.05813C101.595 5.96495 101.963 5.94831 102.319 6.00818C102.678 6.05341 103.017 6.16707 103.339 6.34915C103.654 6.52313 103.919 6.74375 104.136 7.011C104.326 7.24585 104.511 7.45796 104.691 7.64732C104.879 7.83013 105.06 8.00484 105.235 8.17145C105.376 8.31222 105.513 8.44894 105.647 8.58161C105.775 8.70618 105.894 8.8373 106.006 8.97497C106.261 9.29082 106.473 9.52799 106.642 9.68651C106.709 9.75284 106.765 9.81435 106.811 9.87104C106.865 9.92118 106.918 9.97864 106.971 10.0434Z" fill="#2C3F91" fill-opacity="0.8"/>
<path d="M99.9374 15.7334C100.023 15.8387 100.126 15.9422 100.249 16.044C100.373 16.1312 100.494 16.2143 100.612 16.2934C100.731 16.3578 100.846 16.4182 100.959 16.4745C101.065 16.5228 101.147 16.5573 101.204 16.5781C101.246 16.5974 101.281 16.6159 101.309 16.6337C101.337 16.6514 101.364 16.6765 101.39 16.7089C101.495 16.8385 101.513 16.9848 101.443 17.1478C101.429 17.213 101.39 17.2718 101.325 17.3242C101.187 17.4356 101.04 17.4608 100.884 17.3998C100.877 17.3917 100.813 17.3628 100.693 17.313C100.572 17.2632 100.428 17.1924 100.26 17.1006C100.093 16.9941 99.9168 16.8755 99.7306 16.7448C99.5526 16.6075 99.3947 16.4538 99.2571 16.2837C99.2244 16.2432 99.1843 16.2019 99.1369 16.1599C99.0976 16.1113 99.0477 16.0579 98.9872 15.9997C98.8939 15.9009 98.7908 15.79 98.6779 15.667C98.565 15.544 98.4364 15.3934 98.2923 15.2152C98.2006 15.1019 98.0942 14.9869 97.9732 14.8705C97.8522 14.754 97.7246 14.6294 97.5905 14.4967C97.409 14.322 97.2176 14.1352 97.0164 13.9362C96.8233 13.7306 96.6252 13.5023 96.4221 13.2513C96.2977 13.0974 96.131 12.9576 95.922 12.8318C95.7131 12.7061 95.4849 12.6227 95.2374 12.5818C94.9834 12.5327 94.7239 12.5349 94.459 12.5884C94.1876 12.6338 93.9304 12.7548 93.6874 12.9514C93.3797 13.2003 93.1502 13.4798 92.999 13.7897C92.8493 14.0849 92.7541 14.3897 92.7136 14.7039C92.6664 15.01 92.664 15.3134 92.7063 15.6141C92.7421 15.9068 92.7923 16.1676 92.857 16.3966C93.2578 16.8093 93.6937 17.2405 94.1647 17.6902C94.6357 18.1399 95.0804 18.5572 95.499 18.9421C95.9191 19.3123 96.2714 19.6236 96.5558 19.8758C96.8403 20.1281 96.9923 20.2663 97.012 20.2906C97.0775 20.3716 97.1081 20.4674 97.1038 20.5781C97.0996 20.6887 97.0473 20.798 96.947 20.9059C96.8579 20.978 96.7581 21.0119 96.6474 21.0076C96.5514 21.0049 96.4626 20.9696 96.3808 20.9017C96.3612 20.8774 96.2427 20.7723 96.0253 20.5864C95.816 20.3939 95.5487 20.1546 95.2234 19.8684C94.9062 19.5757 94.5514 19.2531 94.1591 18.9006C93.7602 18.54 93.3653 18.1761 92.9745 17.8089C92.7636 17.9125 92.5704 17.8477 92.3951 17.6144C92.2834 17.41 92.177 17.1544 92.0761 16.8475C91.9158 16.6824 91.7693 16.5262 91.6368 16.3789C91.4976 16.2235 91.3724 16.0769 91.261 15.9392C90.9465 15.5505 90.6003 15.1473 90.2222 14.7297C89.8441 14.312 89.4882 13.93 89.1544 13.5837C88.8222 13.2227 88.5384 12.9298 88.3029 12.7049C88.0755 12.4735 87.9553 12.3497 87.9422 12.3335C87.8701 12.2445 87.8395 12.1486 87.8503 12.0461C87.8627 11.9289 87.915 11.8196 88.0071 11.7182C88.0962 11.6462 88.1961 11.6123 88.3067 11.6166C88.4174 11.6208 88.5128 11.6642 88.5929 11.7468C88.6126 11.7711 88.7328 11.8949 88.9537 12.1182C89.168 12.3334 89.4354 12.606 89.7561 12.9362C90.0768 13.2663 90.4228 13.6361 90.7944 14.0457C91.1593 14.4472 91.4991 14.8423 91.8135 15.231C91.8091 14.7121 91.9006 14.1959 92.0882 13.6824C92.2773 13.1543 92.6269 12.6838 93.1371 12.2711C93.461 12.009 93.8091 11.8347 94.1811 11.7481C94.5613 11.6549 94.9297 11.6382 95.2863 11.6981C95.6444 11.7434 95.9843 11.857 96.3057 12.0391C96.6207 12.2131 96.8862 12.4337 97.1024 12.7009C97.2924 12.9358 97.4774 13.1479 97.6574 13.3373C97.8455 13.5201 98.027 13.6948 98.202 13.8614C98.3426 14.0022 98.48 14.1389 98.6142 14.2715C98.7417 14.3961 98.8612 14.5272 98.9726 14.6649C99.2281 14.9808 99.4401 15.2179 99.6085 15.3764C99.6755 15.4428 99.732 15.5043 99.7779 15.561C99.8318 15.6111 99.885 15.6686 99.9374 15.7334Z" fill="#2C3F91" fill-opacity="0.8"/>
<path d="M88.8047 20.0571C90.8015 19.5939 92.1112 19.747 92.7335 20.5164C92.9235 20.7512 93.0576 21.0246 93.1358 21.3366C93.2139 21.6485 93.2587 21.9606 93.2702 22.2729C93.2751 22.5771 93.2555 22.8676 93.2115 23.1444C93.169 23.4065 93.118 23.6085 93.0586 23.7504C93.0073 23.8857 92.9203 24.0432 92.7977 24.2228C92.6896 24.4039 92.567 24.5836 92.4297 24.7616C92.3005 24.9332 92.1687 25.0933 92.0345 25.2421C91.9084 25.3843 91.7968 25.4947 91.6996 25.5733C91.489 25.7437 91.2328 25.8907 90.9309 26.0143C90.6436 26.1395 90.3251 26.2096 89.9754 26.2245C89.6323 26.2475 89.2668 26.2015 88.879 26.0865C88.4993 25.9649 88.1069 25.7531 87.7018 25.4511C87.5576 25.273 87.5793 25.0679 87.7668 24.8358C87.8396 24.7769 87.9281 24.7455 88.0322 24.7417C88.1298 24.7297 88.2194 24.7577 88.3011 24.8256C88.6654 25.0937 89.0071 25.2594 89.3263 25.3227C89.647 25.3714 89.9318 25.3755 90.1804 25.3351C90.4372 25.2882 90.6483 25.2179 90.8138 25.1243C90.9807 25.016 91.0926 24.9389 91.1493 24.8931C91.2221 24.8341 91.3168 24.7441 91.4333 24.6231C91.5432 24.494 91.6499 24.3608 91.7532 24.2236C91.8581 24.0717 91.955 23.9264 92.0437 23.7876C92.1405 23.6423 92.2049 23.5232 92.237 23.4303C92.2771 23.3309 92.3153 23.1794 92.3516 22.9758C92.3814 22.7641 92.3932 22.5469 92.3871 22.3241C92.3826 22.0866 92.3553 21.8541 92.3052 21.6266C92.2552 21.3991 92.1712 21.2125 92.0533 21.0667C91.9878 20.9857 91.8881 20.9122 91.7544 20.8463C91.614 20.7722 91.4267 20.7228 91.1923 20.698C90.9594 20.6586 90.6633 20.657 90.304 20.6931C89.9528 20.7227 89.5229 20.7958 89.0143 20.9124C88.6877 20.9891 88.3457 21.0714 87.9883 21.1596C87.639 21.2412 87.3157 21.3219 87.0184 21.4016C86.7146 21.4732 86.4603 21.5315 86.2556 21.5766L85.9583 21.6563L85.6951 21.7285L85.5182 21.5098C85.2169 21.1373 85.048 20.738 85.0115 20.312C84.9684 19.8778 85.0052 19.4595 85.1218 19.0571C85.2318 18.6465 85.3933 18.2747 85.6062 17.9417C85.8272 17.6021 86.0511 17.3406 86.2779 17.1572C86.5127 16.9672 86.7341 16.835 86.9419 16.7607C87.1497 16.6863 87.3358 16.643 87.5 16.6307C87.6577 16.6103 87.787 16.6129 87.888 16.6384C87.9906 16.6492 88.0525 16.6594 88.0737 16.6691C88.16 16.693 88.2294 16.7374 88.2818 16.8022C88.3801 16.9236 88.4028 17.0594 88.3499 17.2093C88.3179 17.3022 88.2735 17.3716 88.2168 17.4175C88.0954 17.5157 87.9596 17.5384 87.8097 17.4856C87.8016 17.4921 87.7715 17.4963 87.7195 17.4983C87.669 17.4855 87.5982 17.4892 87.5072 17.5092C87.4243 17.5226 87.3245 17.5565 87.2076 17.6109C87.0923 17.6505 86.9659 17.7261 86.8282 17.8374C86.6905 17.9488 86.5474 18.1115 86.3989 18.3254C86.2504 18.5393 86.1281 18.7856 86.032 19.0643C85.9294 19.3349 85.8699 19.6175 85.8536 19.9121C85.8373 20.2066 85.9007 20.4836 86.0436 20.7432C86.1882 20.7066 86.3669 20.6625 86.5797 20.6109C86.786 20.5512 87.0143 20.4938 87.2645 20.4388C87.5163 20.3691 87.7787 20.3042 88.0517 20.2442C88.3181 20.176 88.5691 20.1136 88.8047 20.0571Z" fill="#2C3F91" fill-opacity="0.8"/>
</svg>
