<svg width="130" height="83" viewBox="0 0 130 83" fill="none" xmlns="http://www.w3.org/2000/svg">
<path d="M120.954 35.9745C120.864 35.9988 120.696 36.0976 120.451 36.271C120.214 36.4317 119.983 36.6768 119.759 37.0066C119.542 37.3235 119.367 37.7371 119.234 38.2472C119.108 38.7446 119.107 39.3434 119.23 40.0438C119.39 39.9577 119.569 39.8612 119.767 39.7543C119.975 39.6447 120.179 39.5414 120.38 39.4446C120.587 39.3349 120.783 39.2394 120.966 39.158C121.159 39.0739 121.316 39.0157 121.437 38.9833C121.578 38.9456 121.746 38.8682 121.941 38.7512C122.143 38.6215 122.341 38.4931 122.533 38.366C122.688 38.2598 122.836 38.1664 122.976 38.0857C123.113 37.995 123.247 37.9106 123.377 37.8326C123.229 37.4409 123.05 37.1167 122.841 36.86C122.632 36.6032 122.417 36.4022 122.194 36.2568C121.972 36.1115 121.753 36.0192 121.538 35.9798C121.32 35.9304 121.125 35.9287 120.954 35.9745ZM125.659 42.1226C125.769 42.0929 125.869 42.1039 125.959 42.1554C126.058 42.2043 126.137 42.2965 126.195 42.4319C126.224 42.5426 126.213 42.6426 126.162 42.7319C126.123 42.8286 126.051 42.9018 125.946 42.9516C125.926 42.957 125.838 42.9913 125.682 43.0546C125.529 43.1279 125.346 43.2093 125.133 43.2988C124.92 43.3883 124.695 43.4754 124.459 43.5603C124.223 43.6451 124.019 43.7104 123.848 43.7563C122.51 44.1148 121.389 44.0377 120.486 43.5248C119.58 43.0018 118.92 42.1058 118.504 40.8368C118.309 40.1882 118.21 39.5998 118.209 39.0717C118.218 38.541 118.286 38.0699 118.413 37.6584C118.55 37.2442 118.728 36.8837 118.948 36.5768C119.168 36.2699 119.391 36.016 119.617 35.8151C119.854 35.6115 120.071 35.4562 120.269 35.3493C120.474 35.2296 120.627 35.1563 120.728 35.1293C120.989 35.0592 121.284 35.0505 121.61 35.1031C121.947 35.153 122.278 35.2801 122.602 35.4844C122.934 35.6759 123.246 35.9536 123.537 36.3176C123.829 36.6816 124.07 37.14 124.262 37.6926C124.343 37.757 124.398 37.8394 124.425 37.94C124.452 38.0407 124.445 38.1343 124.403 38.2209C124.407 38.4356 124.298 38.5726 124.076 38.6319C123.976 38.6589 123.882 38.6516 123.796 38.6101C123.54 38.7433 123.281 38.9043 123.019 39.0932C122.782 39.2538 122.547 39.4031 122.314 39.5409C122.081 39.6787 121.865 39.7746 121.663 39.8285C121.553 39.8582 121.406 39.9137 121.223 39.9951C121.05 40.0738 120.859 40.168 120.651 40.2776C120.443 40.3872 120.232 40.5032 120.017 40.6256C119.809 40.7352 119.621 40.8395 119.453 40.9383C119.661 41.5514 119.936 42.0167 120.28 42.3343C120.632 42.6392 121.002 42.8528 121.39 42.9752C121.786 43.0847 122.18 43.1248 122.571 43.0955C122.97 43.0534 123.32 42.992 123.622 42.9111C123.783 42.8679 123.976 42.8053 124.202 42.7232C124.428 42.641 124.643 42.5566 124.846 42.4698C125.049 42.383 125.229 42.3079 125.384 42.2447L125.602 42.1538L125.659 42.1226Z" fill="#2C3F91" fill-opacity="0.8"/>
<path d="M117.421 43.133C117.459 43.2738 117.513 43.4157 117.583 43.5585C117.664 43.6987 117.748 43.8324 117.837 43.9598C117.922 44.0771 118.005 44.1844 118.085 44.2816C118.164 44.3788 118.228 44.4535 118.274 44.5058C118.32 44.5581 118.354 44.6245 118.376 44.705C118.419 44.866 118.381 45.0056 118.262 45.1238C118.227 45.1547 118.196 45.1793 118.168 45.1974C118.141 45.2156 118.107 45.23 118.067 45.2408C117.906 45.2839 117.765 45.2408 117.644 45.1115C117.631 45.1041 117.58 45.0532 117.489 44.9587C117.397 44.8541 117.291 44.7207 117.172 44.5585C117.063 44.3935 116.949 44.2085 116.829 44.0033C116.719 43.7954 116.635 43.5808 116.576 43.3594C116.562 43.3091 116.542 43.2551 116.516 43.1975C116.497 43.127 116.472 43.0529 116.44 42.9751C116.393 42.8369 116.342 42.6887 116.289 42.5304C116.233 42.3621 116.174 42.1622 116.112 41.9308C116.072 41.7798 116.02 41.6266 115.956 41.471C115.89 41.3053 115.82 41.1246 115.746 40.9287C115.649 40.6853 115.547 40.4267 115.442 40.1531C115.343 39.8667 115.251 39.5625 115.165 39.2405C115.111 39.0393 115.008 38.8351 114.855 38.6279C114.71 38.408 114.53 38.219 114.315 38.0609C114.1 37.9028 113.854 37.7907 113.578 37.7246C113.311 37.6558 113.022 37.6632 112.71 37.7468C112.318 37.852 111.986 38.0218 111.714 38.2563C111.45 38.478 111.237 38.7292 111.075 39.0099C110.913 39.2906 110.787 39.5833 110.696 39.888C110.612 40.18 110.556 40.4538 110.528 40.7095C110.496 40.9551 110.477 41.1652 110.47 41.3397C110.473 41.5114 110.477 41.6074 110.482 41.6275C110.476 41.7261 110.455 41.8074 110.418 41.8712L110.491 42.1428C110.556 42.3843 110.665 42.6516 110.819 42.9446C110.973 43.2376 111.143 43.5481 111.327 43.876C111.559 44.2991 111.792 44.7437 112.025 45.2098C112.267 45.6732 112.457 46.1614 112.595 46.6746C112.627 46.7953 112.614 46.9067 112.555 47.0088C112.496 47.1108 112.406 47.178 112.286 47.2104C112.175 47.24 112.064 47.2268 111.951 47.1705C111.849 47.1116 111.782 47.0218 111.75 46.901C111.626 46.4382 111.451 45.9888 111.227 45.553C111.012 45.1144 110.793 44.6986 110.569 44.3057C110.369 43.9604 110.182 43.6274 110.01 43.3069C109.845 42.9736 109.724 42.6611 109.646 42.3693C109.568 42.0775 109.449 41.7156 109.29 41.2837C109.131 40.8518 108.966 40.4376 108.796 40.0413C108.632 39.6322 108.485 39.2834 108.353 38.995C108.23 38.6939 108.165 38.5333 108.16 38.5132C108.133 38.4126 108.144 38.3126 108.192 38.2132C108.241 38.1138 108.334 38.0352 108.469 37.9773C108.58 37.9477 108.68 37.9586 108.769 38.0102C108.866 38.049 108.939 38.121 108.989 38.2263C108.994 38.2465 109.022 38.3092 109.071 38.4144C109.118 38.5097 109.176 38.6451 109.245 38.8209C109.311 38.9865 109.389 39.176 109.478 39.3893C109.568 39.6025 109.66 39.8259 109.755 40.0592C109.83 39.7371 109.932 39.4132 110.061 39.0876C110.199 38.7593 110.376 38.4531 110.591 38.1691C110.816 37.8823 111.082 37.6276 111.389 37.4052C111.696 37.1827 112.061 37.0149 112.484 36.9016C112.896 36.7911 113.291 36.7769 113.669 36.8589C114.054 36.9283 114.404 37.0664 114.718 37.2734C115.033 37.4803 115.301 37.7373 115.524 38.0444C115.756 38.3487 115.918 38.672 116.01 39.0141C116.091 39.3159 116.178 39.6 116.271 39.8663C116.374 40.1298 116.471 40.3733 116.563 40.5966C116.637 40.7925 116.71 40.9833 116.781 41.1691C116.853 41.3548 116.911 41.5333 116.957 41.7043C117.065 42.1068 117.166 42.4247 117.261 42.6581C117.296 42.746 117.324 42.8301 117.345 42.9106C117.374 42.9784 117.399 43.0525 117.421 43.133Z" fill="#2C3F91" fill-opacity="0.8"/>
<path d="M104.757 38.794C104.586 38.8398 104.425 38.8236 104.275 38.7452C104.131 38.6542 104.037 38.5231 103.991 38.352C103.945 38.181 103.963 38.0253 104.044 37.885C104.135 37.7419 104.266 37.6475 104.437 37.6017C104.598 37.5585 104.749 37.5775 104.889 37.6585C105.04 37.7368 105.138 37.8615 105.184 38.0326C105.229 38.2036 105.208 38.3657 105.12 38.5188C105.039 38.6591 104.918 38.7508 104.757 38.794ZM105.123 39.3753C105.233 39.3456 105.333 39.3566 105.423 39.4082C105.519 39.447 105.591 39.514 105.638 39.6092C105.646 39.6394 105.708 39.7899 105.824 40.0609C105.95 40.3291 106.097 40.6564 106.265 41.0427C106.433 41.429 106.605 41.8468 106.779 42.2962C106.961 42.7328 107.11 43.1295 107.227 43.4863C107.342 43.8331 107.487 44.2362 107.664 44.6956C107.841 45.155 108.018 45.593 108.194 46.0095C108.368 46.4159 108.517 46.7696 108.641 47.0708C108.772 47.3591 108.84 47.5134 108.845 47.5335C108.875 47.6442 108.864 47.7442 108.813 47.8335C108.764 47.9329 108.672 48.0115 108.536 48.0693C108.425 48.099 108.32 48.0894 108.221 48.0405C108.134 47.999 108.066 47.9256 108.016 47.8204C108.008 47.7902 107.939 47.6309 107.808 47.3425C107.686 47.0515 107.539 46.7027 107.365 46.2963C107.189 45.8798 107.012 45.4419 106.835 44.9824C106.658 44.523 106.511 44.1149 106.394 43.7581C106.28 43.4113 106.132 43.0196 105.95 42.583C105.778 42.1437 105.608 41.7309 105.44 41.3446C105.282 40.9556 105.14 40.627 105.014 40.3588C104.896 40.0778 104.834 39.9272 104.828 39.9071C104.802 39.8065 104.807 39.7078 104.846 39.6111C104.885 39.5145 104.957 39.4413 105.062 39.3915L105.123 39.3753Z" fill="#2C3F91" fill-opacity="0.8"/>
<path d="M102.511 41.8222C102.597 42.1441 102.721 42.5261 102.883 42.9681C103.044 43.4101 103.216 43.8709 103.399 44.3504C103.591 44.8273 103.784 45.3041 103.976 45.781C104.176 46.2451 104.36 46.6703 104.528 47.0565C104.694 47.4328 104.83 47.7413 104.938 47.982C105.046 48.2228 105.102 48.3532 105.108 48.3734C105.17 48.6048 105.066 48.7834 104.798 48.9092C104.688 48.9388 104.582 48.9292 104.483 48.8804C104.397 48.8389 104.328 48.7655 104.279 48.6602C104.26 48.6327 104.196 48.4936 104.086 48.2427C103.975 47.9919 103.838 47.6784 103.672 47.3022C103.517 46.9232 103.339 46.5017 103.139 46.0376C102.947 45.5608 102.754 45.0839 102.562 44.6071C102.366 44.1202 102.188 43.6557 102.027 43.2137C101.875 42.769 101.755 42.3807 101.666 42.0486C101.536 41.5657 101.384 41.0566 101.208 40.5213C101.032 39.9861 100.867 39.4911 100.713 39.0363C100.556 38.5715 100.421 38.1872 100.307 37.8834C100.193 37.5795 100.134 37.4176 100.128 37.3974C100.099 37.2868 100.11 37.1868 100.161 37.0975C100.21 36.9981 100.302 36.9195 100.438 36.8616C100.548 36.832 100.65 36.8479 100.742 36.9096C100.841 36.9584 100.916 37.0355 100.965 37.1408C100.974 37.171 101.034 37.338 101.148 37.6418C101.262 37.9456 101.397 38.33 101.554 38.7948C101.708 39.2495 101.873 39.7445 102.049 40.2798C102.225 40.815 102.379 41.3291 102.511 41.8222Z" fill="#2C3F91" fill-opacity="0.8"/>
<path d="M99.5547 47.451C99.5606 47.3524 99.6071 47.2644 99.6943 47.1872C99.4378 46.5118 99.2049 45.884 98.9955 45.3038C98.7962 44.721 98.6467 44.2434 98.5469 43.8711L98.4984 43.69C98.3843 43.6667 98.2963 43.6201 98.2345 43.5504C97.9181 43.2146 97.6313 42.9895 97.3742 42.8751C97.1271 42.758 96.972 42.7024 96.909 42.7086C96.7379 42.7544 96.5847 42.8062 96.4492 42.8641C96.3238 42.9193 96.2373 42.9586 96.1897 42.9822C96.0589 43.0172 95.9397 42.9952 95.8323 42.9162C95.6077 43.0842 95.4017 43.382 95.2143 43.8097C95.037 44.2346 94.896 44.7146 94.7913 45.2495C94.6839 45.7743 94.6262 46.3236 94.6182 46.8973C94.6074 47.461 94.6614 47.9642 94.78 48.4069C94.9067 48.8798 95.0937 49.2556 95.341 49.5345C95.5882 49.8133 95.8609 50.026 96.159 50.1726C96.4544 50.3092 96.7501 50.3863 97.046 50.4041C97.352 50.4191 97.6207 50.3957 97.8521 50.3336C98.0031 50.2932 98.1657 50.1957 98.3399 50.0412C98.5216 49.8739 98.6924 49.6663 98.8525 49.4186C99.0199 49.158 99.1679 48.8649 99.2963 48.5394C99.4221 48.2037 99.5082 47.8409 99.5547 47.451ZM99.3921 43.6446C99.4541 43.8761 99.5424 44.1652 99.6569 44.5119C99.7686 44.8486 99.8949 45.2192 100.036 45.6237C100.184 46.0153 100.34 46.4372 100.504 46.8893C100.666 47.3313 100.834 47.7769 101.008 48.2263C101.17 48.6683 101.327 49.0952 101.481 49.507C101.647 49.9262 101.795 50.3179 101.925 50.6821C102.057 51.0563 102.176 51.3967 102.279 51.7032C102.383 52.0097 102.463 52.2687 102.52 52.4799C102.617 52.8422 102.642 53.2182 102.596 53.6081C102.552 54.0081 102.432 54.3853 102.236 54.7399C102.039 55.0944 101.763 55.4111 101.406 55.69C101.063 55.9762 100.629 56.1895 100.106 56.3297C98.6167 56.7287 97.3317 56.1995 96.251 54.742C96.2201 54.7071 96.1952 54.6545 96.1764 54.5841C96.1278 54.403 96.1783 54.2492 96.3278 54.1229C96.3553 54.1048 96.3777 54.088 96.3952 54.0725C96.4254 54.0644 96.4555 54.0563 96.4857 54.0482C96.6668 53.9997 96.8233 54.0603 96.955 54.2299C97.0403 54.3472 97.1616 54.498 97.3189 54.6823C97.4888 54.874 97.6914 55.0463 97.9264 55.199C98.1614 55.3517 98.44 55.4657 98.7622 55.5412C99.0944 55.6139 99.4668 55.595 99.8793 55.4845C100.312 55.3685 100.66 55.1997 100.924 54.978C101.189 54.7562 101.382 54.5104 101.503 54.2405C101.638 53.978 101.712 53.7102 101.725 53.4371C101.748 53.1613 101.731 52.9177 101.675 52.7064C101.621 52.5052 101.542 52.2513 101.438 51.9448C101.337 51.6483 101.222 51.318 101.092 50.9538C100.962 50.5896 100.82 50.2016 100.667 49.7898C100.516 49.388 100.364 48.9813 100.21 48.5695C100.1 48.9225 99.9601 49.2458 99.7907 49.5392C99.6313 49.8299 99.4525 50.0882 99.2542 50.3139C99.0686 50.5469 98.8708 50.7347 98.661 50.8772C98.4639 51.0271 98.2698 51.1276 98.0786 51.1788C97.6862 51.284 97.2736 51.3137 96.8407 51.2679C96.4206 51.2295 96.0219 51.1098 95.6446 50.909C95.2645 50.6981 94.9223 50.4069 94.6179 50.0356C94.3108 49.6541 94.0831 49.1867 93.9348 48.6333C93.8405 48.2812 93.7819 47.8817 93.7593 47.4348C93.7366 46.988 93.7441 46.533 93.7818 46.07C93.8295 45.6042 93.9051 45.1418 94.0086 44.6828C94.1221 44.221 94.2642 43.8055 94.4349 43.4362C94.6028 43.0569 94.8034 42.7389 95.0366 42.4823C95.2671 42.2157 95.5283 42.0432 95.8201 41.9651C96.0314 41.9084 96.2196 41.9065 96.3847 41.9593C96.4323 41.9358 96.4813 41.9173 96.5316 41.9038C96.5819 41.8903 96.6372 41.8755 96.6976 41.8593C96.8787 41.8108 97.0988 41.8273 97.3579 41.9089C97.617 41.9904 97.8809 42.13 98.1495 42.3276C98.1373 42.2015 98.1378 42.0827 98.1511 41.9713C98.1745 41.8572 98.2653 41.7736 98.4236 41.7204L98.8079 41.5851L98.9734 41.9613C98.9788 41.9814 98.9842 42.0015 98.9896 42.0217C98.9923 42.0317 98.998 42.0733 99.0068 42.1464C99.023 42.2068 99.0544 42.344 99.1009 42.558C99.1576 42.7693 99.2546 43.1315 99.3921 43.6446Z" fill="#2C3F91" fill-opacity="0.8"/>
<path d="M88.9556 52.0867C89.1669 52.03 89.3728 51.8725 89.5731 51.6139C89.7707 51.3452 89.9407 51.0139 90.0832 50.6199C90.2357 50.2231 90.3482 49.7778 90.4208 49.2838C90.4906 48.7798 90.5034 48.2642 90.4592 47.7368C90.2593 47.2727 90.0678 46.7794 89.8847 46.2569C89.7016 45.7344 89.5241 45.1727 89.3523 44.5717C89.2173 44.5108 89.1323 44.4149 89.0973 44.2841C89.0188 44.2728 88.9366 44.2679 88.8507 44.2693C88.7748 44.2681 88.6917 44.2796 88.6011 44.3039C88.4703 44.3389 88.2922 44.419 88.0669 44.544C87.8389 44.6591 87.6016 44.8197 87.3549 45.026C87.1055 45.2222 86.8619 45.4601 86.6241 45.7395C86.3962 46.0162 86.2007 46.3328 86.0374 46.6893C85.8842 47.0431 85.7833 47.4314 85.7348 47.8542C85.6864 48.277 85.7268 48.7298 85.8562 49.2128C86.0611 49.9775 86.2846 50.5701 86.5267 50.9905C86.7788 51.4082 87.0378 51.7109 87.3038 51.8984C87.5798 52.0833 87.8543 52.1823 88.1274 52.1953C88.4079 52.1957 88.684 52.1595 88.9556 52.0867ZM91.3195 47.5063C91.5772 48.1059 91.8324 48.636 92.0853 49.0966C92.3381 49.5573 92.5607 49.9452 92.753 50.2604C92.9553 50.5728 93.1173 50.8152 93.239 50.9875C93.368 51.147 93.4339 51.2318 93.4366 51.2419C93.4547 51.2694 93.4678 51.2982 93.4759 51.3284C93.4914 51.3458 93.5031 51.3696 93.5112 51.3998C93.5598 51.5809 93.5143 51.7333 93.3749 51.8569C93.2998 51.8986 93.2421 51.9249 93.2019 51.9356C93.0107 51.9869 92.8634 51.9401 92.7599 51.7953C92.7289 51.7604 92.57 51.5496 92.283 51.1627C92.0034 50.7632 91.6679 50.1952 91.2765 49.4589C91.2207 49.8945 91.1265 50.3079 90.9942 50.6993C90.8718 51.0879 90.7172 51.4367 90.5304 51.7456C90.3536 52.0518 90.1469 52.3067 89.9103 52.5103C89.6865 52.7212 89.4437 52.8618 89.1821 52.9318C88.1558 53.2068 87.3018 53.0582 86.62 52.486C85.9383 51.9138 85.402 50.8982 85.011 49.4393C84.8493 48.8356 84.7969 48.278 84.854 47.7667C84.9084 47.2452 85.0293 46.7707 85.2167 46.343C85.4141 45.9127 85.6566 45.5296 85.944 45.1938C86.2415 44.8552 86.5411 44.5647 86.8428 44.3221C87.1444 44.0795 87.4331 43.8889 87.7087 43.7503C87.9816 43.6017 88.2036 43.5045 88.3746 43.4587C88.6765 43.3778 88.9543 43.3681 89.208 43.4295C89.459 43.4809 89.6752 43.5631 89.8565 43.6763C90.0451 43.7767 90.1922 43.8829 90.2977 43.9948C90.4005 44.0967 90.4532 44.1527 90.4559 44.1627C90.4996 44.205 90.5295 44.2563 90.5457 44.3166C90.5726 44.4172 90.5557 44.535 90.4948 44.67C90.712 45.1186 90.9245 45.7303 91.1321 46.5051C91.1752 46.666 91.2083 46.8297 91.2313 46.9961C91.2644 47.1598 91.2937 47.3299 91.3195 47.5063Z" fill="#2C3F91" fill-opacity="0.8"/>
<path d="M82.8179 45.902C82.9138 45.8978 83.0041 45.933 83.0888 46.0073C83.1734 46.0817 83.2296 46.1907 83.2572 46.3342C83.2636 46.559 83.1208 46.7105 82.829 46.7887C82.8263 46.7786 82.6308 46.7933 82.2423 46.8327C81.8538 46.872 81.3463 46.9703 80.7198 47.1274C80.9037 47.6928 81.0455 48.1617 81.1452 48.5339C81.1965 48.7251 81.2793 48.9941 81.3938 49.3409C81.5183 49.6849 81.6523 50.0642 81.7957 50.4787C81.9465 50.8805 82.1014 51.2973 82.2602 51.7292C82.4164 52.1511 82.5631 52.5378 82.7005 52.8892C82.8351 53.2306 82.9448 53.5193 83.0296 53.7554C83.1218 53.9787 83.1692 54.0954 83.1719 54.1055C83.2016 54.2162 83.1856 54.3175 83.124 54.4095C83.0751 54.5089 82.988 54.5861 82.8626 54.6413C82.7519 54.671 82.6469 54.6614 82.5475 54.6125C82.4481 54.5636 82.3786 54.4852 82.3389 54.3772C82.3308 54.3471 82.2793 54.2153 82.1844 53.9819C82.0895 53.7485 81.9748 53.4611 81.8402 53.1197C81.7129 52.7656 81.5712 52.3776 81.415 51.9557C81.2589 51.5338 81.1054 51.122 80.9546 50.7203C80.8112 50.3058 80.6772 49.9265 80.5527 49.5824C80.4382 49.2357 80.354 48.9616 80.3 48.7604C80.1976 48.3781 80.0585 47.9193 79.8827 47.384C79.6265 47.4742 79.3767 47.5682 79.1332 47.6657C78.8898 47.7633 78.6715 47.8542 78.4783 47.9383C78.2925 48.0096 78.1369 48.0729 78.0115 48.1281C77.8962 48.1805 77.8284 48.2095 77.8083 48.2149C77.7077 48.2418 77.6077 48.2309 77.5083 48.182C77.409 48.1331 77.3304 48.041 77.2725 47.9055C77.2455 47.8049 77.2528 47.7113 77.2943 47.6247C77.3432 47.5253 77.4202 47.4507 77.5255 47.4009C77.5356 47.3982 77.5983 47.3707 77.7136 47.3182C77.8364 47.2529 77.9906 47.1847 78.1764 47.1133C78.3695 47.0292 78.5892 46.9434 78.8353 46.8559C79.0788 46.7583 79.3337 46.663 79.5999 46.5701C79.5043 46.2938 79.405 46.0238 79.302 45.7602C79.2064 45.4839 79.1098 45.224 79.0122 44.9806C78.922 44.7243 78.8322 44.4896 78.7427 44.2763C78.6532 44.0631 78.5718 43.88 78.4984 43.7271C78.4715 43.6265 78.4824 43.5265 78.5313 43.4271C78.5802 43.3277 78.6723 43.2491 78.8078 43.1912C78.9084 43.1643 79.002 43.1716 79.0886 43.2131C79.1853 43.2519 79.2585 43.3239 79.3083 43.4292C79.4623 43.7222 79.6423 44.1323 79.8483 44.6595C80.0542 45.1866 80.2592 45.7302 80.4632 46.2903C80.8053 46.1986 81.1148 46.1264 81.3919 46.0738C81.679 46.0184 81.9222 45.9802 82.1215 45.9592C82.3308 45.9354 82.4948 45.9238 82.6136 45.9244C82.7397 45.9121 82.8078 45.9047 82.8179 45.902Z" fill="#2C3F91" fill-opacity="0.8"/>
<path d="M71.1798 54.1156C71.1791 54.1158 71.1772 54.1158 71.1758 54.1161C71.1729 54.1169 71.1686 54.1188 71.1627 54.1204C71.1506 54.1236 71.1316 54.128 71.1073 54.1344C71.0586 54.1471 70.9857 54.1663 70.8899 54.1907C70.6981 54.2395 70.4144 54.3109 70.0483 54.3994C69.3159 54.5763 68.2535 54.8222 66.9373 55.0992C64.3041 55.6535 60.6573 56.3299 56.6027 56.8192C52.5467 57.3087 48.0918 57.6095 43.84 57.4164C39.5826 57.2232 35.5615 56.5363 32.3534 55.0716C25.8157 52.0868 17.9856 45.7836 11.761 40.1901C8.65566 37.3996 5.96183 34.7967 4.0447 32.8916C3.10986 31.9627 2.36048 31.1993 1.83775 30.6619L5.11137 30.7548C5.38731 30.7626 5.61818 30.5454 5.62617 30.2695C5.63401 29.9935 5.41605 29.7629 5.14002 29.7551L0.642011 29.6275C0.36598 29.6197 0.136323 29.8373 0.128484 30.1133L2.43768e-05 34.6117C-0.00757685 34.8875 0.209942 35.1174 0.48581 35.1252C0.761841 35.1331 0.991499 34.9155 0.999338 34.6394L1.09353 31.3326C1.6209 31.8751 2.38503 32.6517 3.34034 33.601C5.2661 35.5147 7.9721 38.13 11.0929 40.9344C17.3205 46.5306 25.2492 52.927 31.9385 55.981C35.3108 57.5206 39.4751 58.2195 43.7943 58.4156C48.1193 58.612 52.6336 58.3059 56.7231 57.8123C60.8139 57.3186 64.4902 56.6362 67.1434 56.0777C68.4704 55.7984 69.5422 55.5494 70.2831 55.3705C70.6535 55.281 70.9419 55.2096 71.1375 55.1598C71.2349 55.1349 71.3094 55.1157 71.3598 55.1025C71.385 55.0959 71.4046 55.0899 71.4176 55.0865C71.4238 55.0849 71.4286 55.0837 71.4319 55.0828C71.4334 55.0824 71.435 55.0825 71.4359 55.0823L71.4368 55.0819C71.4371 55.0818 71.4376 55.0817 71.3087 54.5986C71.1875 54.1443 71.1803 54.1172 71.1798 54.1156Z" fill="#2C3F91" fill-opacity="0.8"/>
</svg>
